<svg width="current" height="current" viewBox="0 0 36 36" fill="none" xmlns="http://www.w3.org/2000/svg">
<title>resume</title>
<path d="M21 3H9C8.20435 3 7.44129 3.31607 6.87868 3.87868C6.31607 4.44129 6 5.20435 6 6V30C6 31.665 7.335 33 9 33H27C28.665 33 30 31.665 30 30V12L21 3ZM27 30H9V6H19.5V13.5H27V30ZM19.5 19.5C19.5 21.15 18.15 22.5 16.5 22.5C14.85 22.5 13.5 21.15 13.5 19.5C13.5 17.85 14.85 16.5 16.5 16.5C18.15 16.5 19.5 17.85 19.5 19.5ZM22.5 27V28.5H10.5V27C10.5 25.005 14.505 24 16.5 24C18.495 24 22.5 25.005 22.5 27Z" fill="#333333"/>
</svg>
