<svg width="current" height="current" viewBox="0 0 36 36" fill="none" xmlns="http://www.w3.org/2000/svg">
<title>email</title>
<path d="M18 22.5C19.215 22.5 20.25 22.05 21.165 21.165C22.05 20.25 22.5 19.215 22.5 18C22.5 16.785 22.05 15.75 21.165 14.835C20.25 13.95 19.215 13.5 18 13.5C16.785 13.5 15.75 13.95 14.835 14.835C13.95 15.75 13.5 16.785 13.5 18C13.5 19.215 13.95 20.25 14.835 21.165C15.75 22.05 16.785 22.5 18 22.5ZM18 3C22.125 3 25.65 4.5 28.575 7.425C31.5 10.35 33 13.875 33 18V20.175C33 21.675 32.475 22.95 31.5 24C30.45 25.005 29.25 25.5 27.75 25.5C25.95 25.5 24.465 24.75 23.34 23.25C21.84 24.75 20.07 25.5 18 25.5C15.945 25.5 14.175 24.75 12.69 23.31C11.25 21.825 10.5 20.07 10.5 18C10.5 15.945 11.25 14.175 12.69 12.69C14.175 11.25 15.945 10.5 18 10.5C20.07 10.5 21.825 11.25 23.31 12.69C24.75 14.175 25.5 15.945 25.5 18V20.175C25.5 20.79 25.74 21.33 26.19 21.795C26.64 22.26 27.165 22.5 27.75 22.5C28.38 22.5 28.905 22.26 29.355 21.795C29.805 21.33 30 20.79 30 20.175V18C30 14.715 28.845 11.895 26.475 9.525C24.105 7.155 21.285 6 18 6C14.715 6 11.895 7.155 9.525 9.525C7.155 11.895 6 14.715 6 18C6 21.285 7.155 24.105 9.525 26.475C11.895 28.845 14.715 30 18 30H25.5V33H18C13.875 33 10.35 31.5 7.425 28.575C4.5 25.65 3 22.125 3 18C3 13.875 4.5 10.35 7.425 7.425C10.35 4.5 13.875 3 18 3Z" fill="#333333"/>
</svg>
